<?xml version="1.0" encoding="UTF-8" standalone="no"?>
<!-- Created with Inkscape (http://www.inkscape.org/) -->

<svg
   version="1.1"
   id="svg2"
   width="375"
   height="375"
   viewBox="0 0 2800 2800"
   sodipodi:docname="vecteezy_heron-silhouette-with-moon-background-logo-template_19513430.eps"
   xmlns:inkscape="http://www.inkscape.org/namespaces/inkscape"
   xmlns:sodipodi="http://sodipodi.sourceforge.net/DTD/sodipodi-0.dtd"
   xmlns="http://www.w3.org/2000/svg"
   xmlns:svg="http://www.w3.org/2000/svg">
  <defs
     id="defs6" />
  <sodipodi:namedview
     id="namedview4"
     pagecolor="#ffffff"
     bordercolor="#000000"
     borderopacity="0.25"
     inkscape:showpageshadow="2"
     inkscape:pageopacity="0.0"
     inkscape:pagecheckerboard="0"
     inkscape:deskcolor="#d1d1d1" />
  <g
     id="g8"
     inkscape:groupmode="layer"
     inkscape:label="ink_ext_XXXXXX"
     transform="matrix(1.3333333,0,0,-1.3333333,0,2800)">
    <g
       id="g10"
       transform="scale(0.1)">
      <path
         d="M 17.793,-1.5 H 21015.3 V 20996 H 17.793 V -1.5"
         style="fill:#ffffff;fill-opacity:1;fill-rule:evenodd;stroke:none"
         id="path12" />
      <path
         d="M 17.793,-1.5 H 21015.3 V 20996 H 17.793 Z"
         style="fill:none;stroke:#1b1a22;stroke-width:2.16;stroke-linecap:butt;stroke-linejoin:miter;stroke-miterlimit:2.6131;stroke-dasharray:none;stroke-opacity:1"
         id="path14" />
      <path
         d="M 17.793,-1.5 H 21015.3 V 20996 H 17.793 V -1.5"
         style="fill:#1b1a22;fill-opacity:1;fill-rule:evenodd;stroke:none"
         id="path16" />
      <path
         d="m 14748.3,5269.7 c 65.4,213.9 40,452.9 40,452.9 31.1,-79.4 53,-169 67.6,-263.3 -15.3,272.5 -92,539.2 -170.1,747.1 l -2.6,-20 5.1,7.7 -5.8,-12.8 c -43.8,-348.1 8.9,-707.6 31.3,-835.5 8.6,-40.1 16,-70.8 20.4,-88.6 z m -4618.4,12203.4 c 3852.6,0 6975.8,-3123.2 6975.8,-6975.9 0,-1778.8 -666,-3401.7 -1762.1,-4633.8 24.3,83.3 56.6,162.1 98.9,232.8 0,0 -131.5,-121.3 -227.1,-373.1 -36.3,-38.6 -73,-77 -110.2,-114.8 -20.6,265.3 -15.9,719.4 196.8,1064.1 0,0 -382.7,-329.3 -411.7,-760.1 0,0 -27.8,191.2 -179.1,432.3 25.4,110.8 63.3,216.4 118.3,308.1 0,0 -83.9,-77.2 -166.2,-236.3 -44.5,62.7 -97.4,127.8 -160.2,193.1 0,0 57.8,-101.5 126.7,-263.2 -46.7,-105.4 -88.9,-238.6 -110,-400.5 0,0 -150.4,765.2 169.3,1283.2 0,0 -382.6,-329.3 -411.8,-760.1 0,0 -50.6,348.6 -387.4,697.1 0,0 320.2,-561.5 353.1,-1150.1 -14.5,94.2 -36.4,184.1 -68,263.5 0,0 15.3,-140.9 -7.5,-303.3 v -0.6 h -0.1 v -0.5 l -0.2,-1 -0.1,-1.5 -0.2,-1.7 -0.5,-2.1 -0.3,-2.6 v -1.2 c -2.8,-17.4 -5.9,-35.5 -9.7,-53.4 l -1.3,-6.4 -0.4,-3 c -18.4,-95 -56.1,-260.8 -114.5,-367.1 45.5,343.5 -51.4,1033.2 35,1215.6 0,0 -137.2,-187.2 -164.5,-714.7 0,0 -125,448.3 -276.7,565.6 0,0 258.9,-541 230.4,-1114.9 l -314.4,112.9 -471.1,-152.1 250.1,-188.2 -339.7,159.4 -2942.7,506.4 -437.8,-455.9 433.7,-123.5 -611.49,26.9 -2545.24,307.2 -177.58,-35.7 560.95,-169.2 -417.33,-27.8 -345,-396.4 525.36,-117.6 h -627.46 l -157.55,-180.7 h -7.01 c -20.37,120.9 -71.12,507.5 67.84,739.4 0,0 -141.27,-130.6 -177.46,-405.2 0,0 -86.07,438.4 97.19,735.5 0,0 -219.19,-188.7 -235.94,-435.7 0,0 -29.18,199.9 -222.01,399.3 0,0 183.48,-321.6 202.49,-659 -8.63,54 -21.02,105.6 -39.09,151 0,0 16.06,-150.1 -28.32,-276.7 0,0 -102.06,392.4 -28.67,546.9 0,0 -78.69,-107.4 -94.66,-409.7 0,0 -24.74,231.2 -158.54,324.1 0,0 84.63,-163.6 116.16,-385.4 -80.83,65.5 -160.07,132.8 -237.82,201.8 79.24,413.6 247.22,749.6 247.22,749.6 -233.51,-162.5 -276.74,-565.6 -276.74,-565.6 -27.38,527.5 -164.68,714.7 -164.68,714.7 79.58,-167.7 40.62,-495.9 -0.09,-720.1 -35.16,33.6 -69.89,67.5 -104.36,101.9 -1.8,86.7 4.52,146.8 4.52,146.8 -14.18,-36.1 -26.35,-74.2 -36.86,-113.9 l -14.66,15 c 73.78,524.5 336.81,985.8 336.81,985.8 -168.41,-159.2 -304.81,-426.7 -408.15,-811.3 22.26,354 -108.85,631.7 -390.97,874.3 146.4,-237.5 194.29,-526.7 203.18,-770.5 -1084.35,1229.6 -1742.53,2843.7 -1742.53,4611.9 0,3852.7 3123.14,6975.9 6975.89,6975.9 v 0"
         style="fill:#ffffff;fill-opacity:1;fill-rule:evenodd;stroke:none"
         id="path18" />
      <path
         d="m 8151.17,5527 c -1536.41,1115.8 -2535.58,2926.1 -2535.58,4970.2 0,3390.7 2748.67,6139.2 6139.31,6139.2 913.6,0 1780.5,-199.5 2559.6,-557.5 -1165.7,875.5 -2614.5,1394.2 -4184.6,1394.2 -3852.75,0 -6975.89,-3123.2 -6975.89,-6975.9 0,-1768.2 658.18,-3382.3 1742.53,-4611.9 -8.89,243.8 -56.78,533 -203.18,770.5 282.12,-242.6 413.23,-520.3 390.97,-874.3 103.34,384.6 239.74,652.1 408.15,811.3 0,0 -263.03,-461.3 -336.81,-985.8 l 14.66,-15 c 10.51,39.7 22.68,77.8 36.86,113.9 0,0 -6.32,-60.1 -4.52,-146.8 34.47,-34.4 69.2,-68.3 104.36,-101.9 40.71,224.2 79.67,552.4 0.09,720.1 0,0 137.3,-187.2 164.68,-714.7 0,0 43.23,403.1 276.74,565.6 0,0 -167.98,-336 -247.22,-749.6 77.75,-69 156.99,-136.3 237.82,-201.8 -31.53,221.8 -116.16,385.4 -116.16,385.4 133.8,-92.9 158.54,-324.1 158.54,-324.1 15.97,302.3 94.66,409.7 94.66,409.7 -73.39,-154.5 28.67,-546.9 28.67,-546.9 44.38,126.6 28.32,276.7 28.32,276.7 18.07,-45.4 30.46,-97 39.09,-151 -19.01,337.4 -202.49,659 -202.49,659 192.83,-199.4 222.01,-399.3 222.01,-399.3 16.75,247 235.94,435.7 235.94,435.7 -183.26,-297.1 -97.19,-735.5 -97.19,-735.5 36.19,274.6 177.46,405.2 177.46,405.2 -138.96,-231.9 -88.21,-618.5 -67.84,-739.4 h 7.01 l 157.55,180.7 h 627.46 l -525.36,117.6 345,396.4 417.33,27.8 -560.95,169.2 177.58,35.7 1265.4,-152.7"
         style="fill:#e5e5e4;fill-opacity:1;fill-rule:evenodd;stroke:none"
         id="path20" />
      <path
         d="m 3411.43,12960.4 c -311.16,0 -583.37,-166.5 -732.47,-415.3 159.35,173.1 387.73,281.5 641.52,281.5 337.53,0 630.5,-191.8 775.28,-472.4 40.97,9.9 83.09,16.5 126.36,19.3 -111.84,340.8 -432.53,586.9 -810.69,586.9"
         style="fill:#e5e5e4;fill-opacity:1;fill-rule:evenodd;stroke:none"
         id="path22" />
      <path
         d="m 7482.27,10769.9 c -0.13,82.6 -148.32,212.5 -307.75,230.8 11.44,43.3 17.68,88.8 17.68,135.8 0,292.1 -236.84,529 -528.95,529 -222.7,0 -413.14,-137.6 -491.19,-332.6 -58.87,30.6 -125.68,47.8 -196.68,47.8 -74.16,0 -143.88,-19.1 -204.63,-52.2 -31.7,288.9 -276.22,513.8 -573.51,513.8 -70.66,0 -138.28,-12.7 -200.82,-36.1 -46.18,368 -360.13,652.7 -740.68,652.7 -60.83,0 -119.78,-7.4 -176.26,-21 -144.82,280.7 -437.74,472.5 -775.19,472.5 -481.53,0 -871.99,-390.4 -871.99,-871.8 0,-122.1 25.16,-238.1 70.4,-343.5 h -0.08 l -88.64,-925.2 h 5068.29"
         style="fill:#1b1a22;fill-opacity:1;fill-rule:evenodd;stroke:none"
         id="path24" />
      <path
         d="m 6121.01,11281.9 c -60.19,-43.9 -98.9,-106.5 -113.76,-173.9 -4.62,84.4 32.21,169.3 105.47,222.8 112.31,82.1 268.88,60.1 354.53,-47.9 -100.56,72.7 -240.6,76.2 -346.24,-1"
         style="fill:#ffffff;fill-opacity:1;fill-rule:evenodd;stroke:none"
         id="path26" />
      <path
         d="m 4886.93,11833.3 c -105.14,16.4 -207.24,-7.7 -290.54,-60.6 80.57,89.7 203.47,138.4 331.67,118.5 196.34,-30.6 332.15,-210.9 309.55,-406.6 -28.15,175.1 -165.96,320.1 -350.68,348.7"
         style="fill:#e5e5e4;fill-opacity:1;fill-rule:evenodd;stroke:none"
         id="path28" />
      <path
         d="m 5878.32,10334.6 c 509.56,0 922.53,-413.1 922.53,-922.5 0,-509.6 -412.97,-922.5 -922.53,-922.5 -509.43,0 -922.49,412.9 -922.49,922.5 0,509.4 413.06,922.5 922.49,922.5"
         style="fill:#ffffff;fill-opacity:1;fill-rule:evenodd;stroke:none"
         id="path30" />
      <path
         d="m 5395.5,9394.6 c 126.11,415.6 565.23,650.5 980.84,524.6 75.7,-23 145.42,-56.3 208.05,-98.1 -97.19,156.4 -249.49,279.4 -439.5,337 -415.75,126.1 -854.82,-108.7 -980.89,-524.5 -102.95,-339.9 35.25,-695.6 316.51,-882.7 -115.42,185.5 -153.36,418.1 -85.01,643.7"
         style="fill:#e5e5e4;fill-opacity:1;fill-rule:evenodd;stroke:none"
         id="path32" />
      <path
         d="m 8187.31,16092.3 c 446.8,0 808.85,-362.1 808.85,-808.9 0,-446.6 -362.05,-808.8 -808.85,-808.8 -446.68,0 -808.68,362.2 -808.68,808.8 0,446.8 362,808.9 808.68,808.9"
         style="fill:#ffffff;fill-opacity:1;fill-rule:evenodd;stroke:none"
         id="path34" />
      <path
         d="m 7803.43,15122.2 c 22.73,380.1 349.36,669.8 729.48,647.1 69.21,-4.1 135.51,-18.4 197.37,-41.1 -114.75,113.5 -269.65,187.3 -443.43,197.8 -380.16,22.8 -706.75,-267 -729.57,-647.1 -18.49,-310.9 171.86,-586 449.84,-688.3 -136.28,134.7 -216.03,325.2 -203.69,531.6"
         style="fill:#e5e5e4;fill-opacity:1;fill-rule:evenodd;stroke:none"
         id="path36" />
      <path
         d="m 9873.15,12959.9 c 125.47,413.6 562.45,647.3 976.05,521.9 75.3,-22.8 144.7,-56 207,-97.5 -96.7,155.6 -248.3,278.1 -437.4,335.4 -413.6,125.4 -850.61,-108.3 -976.03,-521.9 -102.57,-338.4 35.15,-692.2 314.93,-878.6 -114.84,184.8 -152.56,416.2 -84.55,640.7"
         style="fill:#e5e5e4;fill-opacity:1;fill-rule:evenodd;stroke:none"
         id="path38" />
      <path
         d="m 9510.76,9715 c 93.17,307.6 418.31,481.4 725.94,388 55.9,-16.9 107.6,-41.6 153.9,-72.4 -71.9,115.7 -184.6,206.7 -325.3,249.4 -307.66,93.3 -632.71,-80.5 -725.93,-388.1 -76.21,-251.7 26.1,-514.9 234.19,-653.4 -85.44,137.3 -113.46,309.4 -62.8,476.5"
         style="fill:#e5e5e4;fill-opacity:1;fill-rule:evenodd;stroke:none"
         id="path40" />
      <path
         d="m 13775.6,13860 c 138.6,457.3 621.8,715.7 1079.2,577.1 83.2,-25.3 160,-61.9 228.9,-107.8 -107.1,172 -274.5,307.4 -483.7,370.8 -457.4,138.7 -940.5,-119.7 -1079.2,-577.1 -113.4,-374.1 38.8,-765.4 348.2,-971.5 -127,204.3 -168.7,460.2 -93.4,708.5"
         style="fill:#e5e5e4;fill-opacity:1;fill-rule:evenodd;stroke:none"
         id="path42" />
      <path
         d="m 4319.99,17089.5 c 41.36,-684.7 -642.5,-633.1 -642.5,-657.7 0,-5.2 4.15,-9.5 9.23,-9.5 645.49,12.5 624,-651.6 648.57,-651.6 5.08,0 9.23,4.2 9.27,9.3 -56.48,734.9 642.46,632.9 642.46,657.9 0,5 -4.1,9.3 -9.23,9.3 -645.58,-12.4 -623.92,651.7 -648.48,651.7 -5.04,0 -9.23,-4.1 -9.32,-9.4"
         style="fill:#ffffff;fill-opacity:1;fill-rule:evenodd;stroke:none"
         id="path44" />
      <path
         d="m 13842.2,18788.6 c -6,-440.1 -465.6,-452.3 -465.6,-469.9 0,-3.7 3,-6.8 6.8,-6.8 440.2,-6 452.1,-465.5 469.9,-465.5 3.7,0 6.7,3 6.7,6.6 6.1,440.5 465.5,452.2 465.5,470 0,3.6 -3,6.7 -6.6,6.7 -440.3,6.1 -452.2,465.5 -470,465.5 -3.6,0 -6.6,-2.9 -6.7,-6.6"
         style="fill:#ffffff;fill-opacity:1;fill-rule:evenodd;stroke:none"
         id="path46" />
      <path
         d="m 16140.2,16519 c -4.3,-320.2 -338.8,-329.2 -338.8,-341.9 0,-2.8 2.2,-4.9 4.9,-5 320.4,-4.4 329.1,-338.8 342,-338.8 2.7,0 4.9,2.2 4.9,4.9 4.5,320.5 338.8,329 338.8,342 0,2.7 -2.2,4.8 -4.8,4.9 -320.5,4.4 -329.1,338.8 -342.1,338.8 -2.6,0 -4.8,-2.2 -4.9,-4.9"
         style="fill:#ffffff;fill-opacity:1;fill-rule:evenodd;stroke:none"
         id="path48" />
      <path
         d="m 8711.52,6244.4 c 6.37,52.9 31.7,90.9 30.63,171.2 -1.07,80.3 14.83,79.2 39.13,113.1 24.31,33.8 276.87,398.5 319.16,421.7 42.25,23.2 433.09,304.2 511.53,426.9 -59.94,-144.3 -255.6,-282.6 -270.59,-376.1 -8.42,-52.9 -24.27,-76.2 -62.33,-129.1 -38.02,-52.8 -247.26,-319.1 -342.35,-412.1 -95.18,-93 -71.94,-177.6 -76.13,-247.3 -50.28,-825.6 -231.28,-652.3 -149.05,31.7 z m 95.91,-877.9 c 0,0 138.41,744 163.78,786.3 25.38,42.3 86.68,113.1 86.68,142.6 0,29.7 16.92,122.7 61.31,180.3 44.38,57.6 280.58,415.8 366.19,462.3 123.03,66.9 433.86,373.3 495.63,503.2 0,0 -104.06,-44.5 -192.84,-46.6 0,0 144.82,43.3 197.62,68.7 92.4,44.3 252.8,-52.9 522.6,89.3 226.3,119.2 436.6,41.1 613.6,404.1 321.1,658.5 406.7,1080.6 472.1,1777.2 22.3,236.3 80.1,434 289.6,431.6 95.1,-1 346.6,-53.9 568.6,37 0,0 329.2,2.1 387.3,27.5 58.1,25.4 -420.6,225.1 -585.5,247.2 0,0 -175.4,150.1 -327.6,142.7 -44.8,-2.2 -93,-22.9 -139.7,-52.2 l -8.6,-5.5 -7,-4.7 -0.2,-0.1 -7.4,-5 -0.1,-0.1 -0.6,-0.5 c -707.2,-497.6 -224.8,-1432.2 -842.6,-2050 0,0 -44.3,-27.5 -95.1,2 -50.7,29.7 -160.6,146 -266.3,160.8 153.6,35 309,-153.2 305.5,-69.8 -1.1,25.4 -1.1,470.3 113,757.7 152.2,383.1 437.5,1006.5 777.8,1246.8 6,6.3 11.4,11.4 15.9,15.3 54,46.5 156.5,114.2 145.9,331.9 -10.5,217.7 -40.1,568.6 -319.1,938.5 -279.1,369.9 -539,522.1 -574.9,496.7 50.4,-50.3 104.3,-115.4 179.6,-264.2 0,0 -107.1,111.2 -165.1,111.6 22.5,-74.3 -41,-179.3 -6.6,-252.2 -105.4,28.6 -203.1,-130.5 -109.5,-205.6 -139.2,34.2 -232.5,-79.6 -157.4,-215.6 -117.1,4.8 -228.5,-108.3 -188.2,-230.3 0,0 -113,-117.3 -83.4,-213.5 0,0 -107.9,-86.7 -71.9,-194.5 0,0 -101.5,-54.9 -77.1,-138.4 0,0 -85.6,-57.1 -67.7,-133.2 0,0 -186,-108.8 -192.3,-258.9 0,0 -148,-24.6 -160.74,-114.5 0,0 173.14,-1062.6 540.34,-1553.7 -353,199.4 -549.82,1434.6 -594.16,1629.1 -44.43,194.5 -200.83,606.6 -382.6,788.4 -181.81,181.8 -492.51,608.7 -642.59,767.3 -150.03,158.5 -205.05,202.9 -245.21,249.4 -229.91,266.1 -590.08,384.1 -703.84,831.7 -22.18,-7.4 -57.08,-275.9 109.96,-455.5 0,0 -270.59,247.3 -295.96,245.2 -25.38,-2.2 -24.27,-175.4 180.74,-363.6 0,0 70.79,-65.5 101.42,-127.8 0,0 -346.67,288.5 -511.53,282.1 -164.85,-6.3 294.85,-342.4 339.28,-377.3 44.39,-34.8 -391.01,104.6 -418.52,68.7 -27.47,-35.9 112.01,-205 247.3,-291.7 0,0 -128.92,31.7 -137.38,-7.4 -8.42,-39.1 63.43,-177.5 135.29,-231.4 71.85,-53.9 66.56,-43.3 103.55,-124.7 37,-81.4 86.72,-90.9 150.08,-116.3 63.43,-25.3 43.36,-155.3 144.77,-205 101.46,-49.7 142.69,-77.1 179.68,-155.4 37,-78.1 79.29,-82.4 159.6,-101.4 80.31,-19 44.34,-104.1 143.71,-137.9 99.32,-33.9 69.76,-118.4 156.4,-156.4 86.67,-38.1 14.82,-90.9 99.32,-120.5 0,0 -9.49,-108.9 40.16,-146.9 0,0 -40.16,-185 112.05,-258.9 0,0 -50.71,-124.8 116.24,-171.3 0,0 -57.07,-175.4 78.22,-236.7 0,0 -82.45,-49.7 -59.21,-82.4 23.28,-32.8 40.15,-42.3 40.15,-42.3 0,0 -32.72,-205.1 28.58,-281.1 0,0 -21.18,-181.9 -6.36,-230.5 14.82,-48.6 -33.79,-90.8 -12.69,-139.5 0,0 -116.28,-131 -65.53,-247.3 0,0 -99.37,-109.8 -67.67,-175.4 31.7,-65.5 234.79,-151.3 306.64,-162.9 71.86,-11.6 149.95,53 227.1,61.4 0,0 -156.4,-63.4 -197.62,-96.2 -41.27,-32.7 -188.14,-191.3 -286.39,-201.8 -275.54,-126 -625.07,79.9 -950.17,-42.8 349.74,10.2 375.85,-181.1 755.71,-168.5 0,0 -281.1,-31.7 -330.82,-70.9 0,0 70.83,3.2 104.66,-16.9 33.79,-20.1 186,-60.2 237.78,-126.8 163.95,-210.9 365.76,-251.8 380.46,-280.1 29.56,-57 -133.16,-346.6 -179.64,-410.1 -46.52,-63.4 -306.51,-429 -399.47,-502.9 -93.04,-74 -98.3,-103.7 -97.27,-163.8 1.07,-60.4 24.31,-226.3 34.9,-287.5 60.15,-348.7 104.07,-520.3 109.53,-668 -63.22,-85.7 -219.32,-240.2 -597.22,-430.9 0,0 498.46,182.9 616.62,342.3 -80.78,-137.5 -264.61,-321.6 -623.36,-463.9 0,0 364.56,99.4 570.94,291.8 -31.87,-118 -88.13,-266.7 -176.13,-496.5 19.09,1 222.4,495 241.41,495.9 22.43,1.1 -141.1,-488.8 -118.63,-487.7 15.55,182.5 211.29,365.8 192.15,657.3 v 0"
         style="fill:#1b1a22;fill-opacity:1;fill-rule:evenodd;stroke:none"
         id="path50" />
      <path
         d="m 16034.8,15566 c 328.9,0 616.5,-175.8 774.1,-438.7 -168.5,182.8 -409.9,297.5 -678.1,297.5 -356.6,0 -666.1,-202.8 -819.1,-499.3 -43.3,10.3 -87.9,17.4 -133.6,20.3 118.2,360.2 457.1,620.2 856.7,620.2"
         style="fill:#ffffff;fill-opacity:1;fill-rule:evenodd;stroke:none"
         id="path52" />
      <path
         d="m 11733.1,13251.2 c 0.1,87.3 156.6,224.7 325.1,244 -12,45.7 -18.7,93.9 -18.7,143.5 0,308.6 250.3,559 559.1,559 235.2,0 436.5,-145.5 519.1,-351.3 62.1,32.3 132.8,50.3 207.7,50.3 78.4,0 152,-20 216.4,-55.2 33.3,305.4 291.7,542.9 605.9,542.9 74.6,0 146.1,-13.4 212.3,-37.9 48.7,388.8 380.4,689.6 782.6,689.6 64.2,0 126.5,-7.9 186.3,-22.2 152.9,296.6 462.4,499.4 819.1,499.4 508.8,0 921.5,-412.6 921.5,-921.4 0,-128.9 -26.8,-251.6 -74.4,-363 h 0.1 l 93.6,-977.7 h -5355.7"
         style="fill:#1b1a22;fill-opacity:1;fill-rule:evenodd;stroke:none"
         id="path54" />
      <path
         d="m 13171.5,13792.4 c 63.6,-46.4 104.5,-112.6 120.3,-183.8 4.9,89.1 -34.1,178.8 -111.6,235.5 -118.7,86.7 -284,63.5 -374.6,-50.8 106.4,77 254.2,80.7 365.9,-0.9"
         style="fill:#ffffff;fill-opacity:1;fill-rule:evenodd;stroke:none"
         id="path56" />
      <path
         d="m 14475.6,14375.1 c 111.2,17.3 219,-8.2 307,-64.2 -85.1,94.9 -215,146.4 -350.5,125.2 -207.4,-32.2 -350.9,-222.8 -327.1,-429.5 29.8,185 175.4,338.1 370.6,368.5"
         style="fill:#ffffff;fill-opacity:1;fill-rule:evenodd;stroke:none"
         id="path58" />
    </g>
  </g>
</svg>
