<?xml version="1.0" encoding="UTF-8" standalone="no"?>
<!-- Created with Inkscape (http://www.inkscape.org/) -->

<svg
   version="1.1"
   id="svg2"
   width="200"
   height="200"
   viewBox="0 0 2666.6667 2666.6667"
   sodipodi:docname="vecteezy_rocket-ship-vector-isolated-on-white-background_9009224.eps"
   xmlns:inkscape="http://www.inkscape.org/namespaces/inkscape"
   xmlns:sodipodi="http://sodipodi.sourceforge.net/DTD/sodipodi-0.dtd"
   xmlns="http://www.w3.org/2000/svg"
   xmlns:svg="http://www.w3.org/2000/svg">
  <defs
     id="defs6" />
  <sodipodi:namedview
     id="namedview4"
     pagecolor="#ffffff"
     bordercolor="#000000"
     borderopacity="0.25"
     inkscape:showpageshadow="2"
     inkscape:pageopacity="0.0"
     inkscape:pagecheckerboard="0"
     inkscape:deskcolor="#d1d1d1" />
  <g
     id="g8"
     inkscape:groupmode="layer"
     inkscape:label="ink_ext_XXXXXX"
     transform="matrix(1.3333333,0,0,-1.3333333,0,2666.6667)">
    <g
       id="g10"
       transform="scale(0.1)">
      <path
         d="M 20000,0 H 0 V 20000 H 20000 V 0"
         style="fill:#ffffff;fill-opacity:1;fill-rule:nonzero;stroke:none"
         id="path12" />
      <path
         d="M 10000,8045 V 7704 H 8488.94 c -57.46,101.1 -107.33,217.4 -150.42,341 H 10000"
         style="fill:#673946;fill-opacity:1;fill-rule:nonzero;stroke:none"
         id="path14" />
      <path
         d="M 10000,8045 V 7704 H 8488.94 c -50.96,89.4 -95.68,190.8 -135.25,298.7 -5.15,14.1 -10.3,28.2 -15.17,42.3 H 10000"
         style="fill:#673946;fill-opacity:1;fill-rule:nonzero;stroke:none"
         id="path16" />
      <path
         d="m 8890.9,7704 h -312.78 c -50.96,89.4 -95.68,190.8 -135.25,298.7 -5.16,14.1 -10.31,28.2 -15.18,42.3 h 312.78 c 4.88,-14.1 10.03,-28.2 15.18,-42.3 39.57,-107.9 84.29,-209.3 135.25,-298.7"
         style="fill:#895d70;fill-opacity:1;fill-rule:nonzero;stroke:none"
         id="path18" />
      <path
         d="m 12416.9,11627.3 c 0,-2638 -632.6,-3582.3 -632.6,-3582.3 H 8215.73 c 0,0 -632.61,944.3 -632.61,3582.3 0,3180.2 2416.88,5872.7 2416.88,5872.7 0,0 2416.9,-2692.5 2416.9,-5872.7"
         style="fill:#eaeaea;fill-opacity:1;fill-rule:nonzero;stroke:none"
         id="path20" />
      <path
         d="m 10455.1,8045 h -391.7 c -95.92,478.4 -192.42,1122.6 -236.6,1909.5 -64.77,1156.2 51.23,1700.5 231.5,1710.5 180.2,10 356.1,-517.7 420.9,-1673.9 44.7,-798.8 19,-1457.7 -24.1,-1946.1"
         style="fill:#cecece;fill-opacity:1;fill-rule:nonzero;stroke:none"
         id="path22" />
      <path
         d="m 12416.9,11627.3 c 0,-2638 -632.6,-3582.3 -632.6,-3582.3 h -832.1 c 0,0 597.3,1061.6 597.3,4027.4 0,1332.4 -317.1,2589 -715.2,3640.9 h 398.1 c 596.3,-1066.8 1184.5,-2516.9 1184.5,-4086"
         style="fill:#cecece;fill-opacity:1;fill-rule:nonzero;stroke:none"
         id="path24" />
      <path
         d="m 10000,8045 v -42.3 H 8353.69 c -5.15,14.1 -10.3,28.2 -15.17,42.3 H 10000"
         style="fill:#562c36;fill-opacity:1;fill-rule:nonzero;stroke:none"
         id="path26" />
      <path
         d="M 11232.7,15713.3 H 8767.3 c 612.28,1095.5 1232.7,1786.7 1232.7,1786.7 0,0 620.4,-691.2 1232.7,-1786.7"
         style="fill:#e83d23;fill-opacity:1;fill-rule:nonzero;stroke:none"
         id="path28" />
      <path
         d="m 11232.4,15713.3 h -398.1 c -261.6,691.7 -558.1,1295 -822.4,1773.1 17.9,-20.3 55,-63.4 107.6,-127.3 6.3,-7.9 13,-15.8 19.8,-24.2 27.1,-33.3 57.8,-71.2 91.1,-113.8 11.1,-14.1 22.8,-28.7 34.7,-43.9 0,-0.3 0,-0.3 0,-0.3 17.9,-22.7 36.3,-46.9 55.3,-71.8 1.3,-1.4 2.1,-2.7 3.2,-4.1 6.5,-8.6 13.6,-17.9 20.6,-27.1 24.7,-32.8 50.7,-67.2 77.3,-103.2 14.1,-19 28.4,-38.5 43.1,-58.6 14.6,-20 29.5,-40.7 44.4,-61.5 13,-18.2 26.3,-36.6 39.9,-55.6 9.7,-13.8 19.7,-27.9 29.5,-42 7.9,-11.1 15.7,-22.5 23.9,-33.9 15.7,-22.7 31.9,-46 48.2,-69.6 8.1,-11.7 16.3,-23.6 24.4,-35.8 0.3,-0.3 0.5,-0.3 0.5,-0.5 16.3,-23.9 32.6,-48.3 49.4,-73 8.4,-12.4 16.8,-25.2 25.2,-37.6 10.5,-15.7 21.1,-31.7 31.7,-48 14.9,-22.8 30.1,-45.8 45.3,-69.1 8.6,-13.3 17.3,-26.6 25.7,-40.1 8.9,-13.6 17.6,-27.1 26.3,-41 26.3,-40.9 52.8,-82.9 79.4,-126 17.6,-28.7 35.5,-57.7 53.4,-87 44.5,-73.5 89.4,-149.1 134.7,-226.9 0.3,-0.2 0.3,-0.5 0.3,-0.8 18.1,-31.1 36.3,-62.9 54.5,-94.8 9.2,-16 18.1,-32 27.1,-48.3 1.3,-2.4 2.7,-4.9 4,-7.3"
         style="fill:#b51212;fill-opacity:1;fill-rule:nonzero;stroke:none"
         id="path30" />
      <path
         d="m 10265.1,17176.9 c 17.9,-22.7 36.3,-46.9 55.3,-71.8 -19.3,25.2 -37.7,49.1 -55.3,71.8"
         style="fill:#e83d23;fill-opacity:1;fill-rule:nonzero;stroke:none"
         id="path32" />
      <path
         d="m 10674.9,16613.7 c -32.8,48.2 -65.1,94.6 -96.5,139.3 31.7,-44.7 64,-91.1 96.5,-139.3"
         style="fill:#e83d23;fill-opacity:1;fill-rule:nonzero;stroke:none"
         id="path34" />
      <path
         d="m 11011.8,16091.4 c 44.7,-73.2 89.7,-148.8 134.7,-226.9 -45.3,77.8 -90.2,153.4 -134.7,226.9"
         style="fill:#e83d23;fill-opacity:1;fill-rule:nonzero;stroke:none"
         id="path36" />
      <path
         d="m 11232.7,15713.3 h -0.3 c -1.3,2.4 -2.7,4.9 -4,7.3 1.6,-2.4 2.9,-4.9 4.3,-7.3"
         style="fill:#e83d23;fill-opacity:1;fill-rule:nonzero;stroke:none"
         id="path38" />
      <path
         d="M 8111.92,8245 C 7476.6,7831.7 7138.07,7458.7 6957.83,7179.3 c -203.28,354.2 -325.53,772.4 -325.53,1265.5 0,1607.5 555.64,2670.5 951.09,3223.7 -0.27,-13.8 -0.27,-27.3 -0.27,-41.2 0,-1959.9 349.1,-2984.7 528.8,-3382.3"
         style="fill:#e83d23;fill-opacity:1;fill-rule:nonzero;stroke:none"
         id="path40" />
      <path
         d="m 6847.24,7769.9 c -54.21,207.6 -84.02,432 -84.02,674.9 0,1437 443.97,2438.8 820.71,3030.5 1.36,-165.6 5.43,-324.5 11.93,-476.2 -343.96,-608.8 -665.68,-1450.9 -764.88,-2553.8 -21.68,-238.8 -14.91,-463.7 16.26,-675.4"
         style="fill:#f9a293;fill-opacity:1;fill-rule:nonzero;stroke:none"
         id="path42" />
      <path
         d="M 11549.5,6125.2 C 11549.5,4379.9 10000,2500 10000,2500 c 0,0 -1549.55,1879.9 -1549.55,3625.2 0,659.4 130.38,1182.5 292.19,1578.8 h 2514.76 c 161.8,-396.3 292.1,-919.4 292.1,-1578.8"
         style="fill:#ff6200;fill-opacity:1;fill-rule:nonzero;stroke:none"
         id="path44" />
      <path
         d="m 11160.9,6761.6 c 0,-1307.5 -1160.9,-2716.1 -1160.9,-2716.1 0,0 -1160.87,1408.6 -1160.87,2716.1 0,370.5 55.02,683.8 133.62,942.4 h 2054.45 c 78.6,-258.6 133.7,-571.9 133.7,-942.4"
         style="fill:#f8b62e;fill-opacity:1;fill-rule:nonzero;stroke:none"
         id="path46" />
      <path
         d="m 10817.7,7324.3 c 0,-921 -817.7,-1913 -817.7,-1913 0,0 -817.73,992 -817.73,1913 0,137.7 10.84,264.2 29.27,379.7 h 1576.96 c 18.4,-115.5 29.2,-242 29.2,-379.7"
         style="fill:#fee789;fill-opacity:1;fill-rule:nonzero;stroke:none"
         id="path48" />
      <path
         d="m 8111.92,11581.3 c 0,-1902.8 272.13,-3003.7 459.15,-3536.3 h -142.03 c 0,0 -632.34,944.3 -632.34,3582.3 0,1569.1 588.16,3019.4 1184.45,4086 h 139.05 c -530.43,-1129.2 -1008.28,-2577.6 -1008.28,-4132"
         style="fill:#ffffff;fill-opacity:1;fill-rule:nonzero;stroke:none"
         id="path50" />
      <path
         d="m 9820.57,17009.4 c -219.27,-357 -465.11,-795 -700.37,-1296.1 h -139.05 c 303.3,543.2 608.76,986.9 839.42,1296.1"
         style="fill:#f9a293;fill-opacity:1;fill-rule:nonzero;stroke:none"
         id="path52" />
      <path
         d="m 10000,8045 v -341 h 1511.1 c 57.4,101.1 107.3,217.4 150.4,341 H 10000"
         style="fill:#673946;fill-opacity:1;fill-rule:nonzero;stroke:none"
         id="path54" />
      <path
         d="m 10000,8045 v -341 h 1511.1 c 50.9,89.4 95.6,190.8 135.2,298.7 5.2,14.1 10.3,28.2 15.2,42.3 H 10000"
         style="fill:#673946;fill-opacity:1;fill-rule:nonzero;stroke:none"
         id="path56" />
      <path
         d="m 11429.9,8045 h -776 c -4.9,-14.1 -10,-28.2 -15.2,-42.3 -39.6,-107.9 -84.3,-209.3 -135.2,-298.7 h 231.6 81.1 150.5 81.2 150.4 81.2 231.6 c 50.9,89.4 95.6,190.8 135.2,298.7 5.2,14.1 10.3,28.2 15.2,42.3 h -231.6"
         style="fill:#562c36;fill-opacity:1;fill-rule:nonzero;stroke:none"
         id="path58" />
      <path
         d="m 10000,8045 v -42.3 h 1646.3 c 5.2,14.1 10.3,28.2 15.2,42.3 H 10000"
         style="fill:#562c36;fill-opacity:1;fill-rule:nonzero;stroke:none"
         id="path60" />
      <path
         d="m 11888.1,8245 c 635.3,-413.3 973.8,-786.3 1154.1,-1065.7 203.3,354.2 325.5,772.4 325.5,1265.5 0,1607.5 -555.6,2670.5 -951.1,3223.7 0.3,-13.8 0.3,-27.3 0.3,-41.2 0,-1959.9 -349.1,-2984.7 -528.8,-3382.3"
         style="fill:#e83d23;fill-opacity:1;fill-rule:nonzero;stroke:none"
         id="path62" />
      <path
         d="m 12438.6,7839.3 c -152.9,129.2 -334.5,265 -550.5,405.7 179.7,397.6 528.8,1422.4 528.8,3382.3 0,13.9 0,27.4 -0.3,41.2 6.8,-9.2 13.3,-18.7 20.1,-28.4 14.9,-75.1 28.2,-150.7 40.4,-226.9 355.6,-2238 53.9,-3314.8 -38.5,-3573.9"
         style="fill:#b51212;fill-opacity:1;fill-rule:nonzero;stroke:none"
         id="path64" />
      <path
         d="m 11418.9,13149.3 c 0,-756 -612.9,-1368.8 -1368.8,-1368.8 -755.95,0 -1368.76,612.8 -1368.76,1368.8 0,755.9 612.81,1368.7 1368.76,1368.7 755.9,0 1368.8,-612.8 1368.8,-1368.7"
         style="fill:#cecece;fill-opacity:1;fill-rule:nonzero;stroke:none"
         id="path66" />
      <path
         d="m 11368.8,13199.4 c 0,-756 -612.9,-1368.8 -1368.8,-1368.8 -755.95,0 -1368.76,612.8 -1368.76,1368.8 0,755.9 612.81,1368.7 1368.76,1368.7 755.9,0 1368.8,-612.8 1368.8,-1368.7"
         style="fill:#e83d23;fill-opacity:1;fill-rule:nonzero;stroke:none"
         id="path68" />
      <path
         d="m 11368.8,13199.4 c 0,-756 -612.9,-1368.8 -1368.8,-1368.8 -391.93,0 -745.37,164.8 -995,428.8 245.03,-231.7 575.97,-373.8 939.98,-373.8 755.92,0 1368.72,612.9 1368.72,1368.8 0,364 -142,695 -373.7,940 264,-249.7 428.8,-603.1 428.8,-995"
         style="fill:#b51212;fill-opacity:1;fill-rule:nonzero;stroke:none"
         id="path70" />
      <path
         d="m 10908,14071.9 c -229.4,212.8 -536.4,342.6 -873.7,342.6 -709.99,0 -1285.57,-575.6 -1285.57,-1285.6 0,-337.5 129.83,-644.3 342.65,-873.6 -253.3,234.4 -411.9,570.2 -411.9,942.9 0,710 575.59,1285.6 1285.58,1285.6 372.74,0 708.44,-158.6 942.94,-411.9"
         style="fill:#f9a293;fill-opacity:1;fill-rule:nonzero;stroke:none"
         id="path72" />
      <path
         d="m 11059.3,13217.4 c 0,-596.8 -483.9,-1080.7 -1080.76,-1080.7 -596.89,0 -1080.78,483.9 -1080.78,1080.7 0,597 483.89,1080.8 1080.78,1080.8 596.86,0 1080.76,-483.8 1080.76,-1080.8"
         style="fill:#b51212;fill-opacity:1;fill-rule:nonzero;stroke:none"
         id="path74" />
      <path
         d="m 11057.1,13199.4 c 0,-583.8 -473.3,-1057.1 -1057.1,-1057.1 -583.8,0 -1057.07,473.3 -1057.07,1057.1 0,583.8 473.27,1057 1057.07,1057 583.8,0 1057.1,-473.2 1057.1,-1057"
         style="fill:#60d0f8;fill-opacity:1;fill-rule:nonzero;stroke:none"
         id="path76" />
      <path
         d="m 11057.1,13199.4 c 0,-583.8 -473.3,-1057.1 -1057.1,-1057.1 -332.03,0 -628,152.9 -821.8,392.2 181.6,-147.2 413.07,-235.2 664.87,-235.2 583.83,0 1057.03,473.2 1057.03,1057 0,251.8 -88.1,483.3 -235.2,664.9 239.3,-193.8 392.2,-489.8 392.2,-821.8"
         style="fill:#53b8e0;fill-opacity:1;fill-rule:nonzero;stroke:none"
         id="path78" />
      <path
         d="m 9806.88,13315.7 c -259.34,-259.3 -493.16,-446 -649.6,-289.5 -156.45,156.4 -115.83,536.2 143.51,795.6 259.35,259.3 639.21,300 795.61,143.5 156.5,-156.4 -30.2,-390.3 -289.52,-649.6"
         style="fill:#87e4f9;fill-opacity:1;fill-rule:nonzero;stroke:none"
         id="path80" />
      <path
         d="m 10050.1,11668.5 c -180.46,0 -326.75,-536.8 -326.75,-1694.8 0,-1829.3 326.75,-2907.4 326.75,-2907.4 0,0 326.7,1078.1 326.7,2907.4 0,1158 -146.3,1694.8 -326.7,1694.8"
         style="fill:#e83d23;fill-opacity:1;fill-rule:nonzero;stroke:none"
         id="path82" />
      <path
         d="m 10376.7,9973.7 c 0,-1829.3 -326.6,-2907.5 -326.6,-2907.5 0,0 -92.11,303.6 -178.57,862.2 0.68,-3.6 1.37,-7.3 2.05,-10.9 26.29,-139.8 453.02,-43 453.02,2327.5 0,458.1 -23.3,817.8 -62.6,1085 69.1,-275.6 112.7,-723.1 112.7,-1356.3"
         style="fill:#b51212;fill-opacity:1;fill-rule:nonzero;stroke:none"
         id="path84" />
      <path
         d="m 9959.35,11421.8 c 0,0 -236,-598.5 -121.98,-1971.8 0,0 6.78,1331.6 121.98,1971.8"
         style="fill:#f9a293;fill-opacity:1;fill-rule:nonzero;stroke:none"
         id="path86" />
    </g>
  </g>
</svg>
